<?xml version="1.0" encoding="UTF-8"?>
<svg width="700pt" height="700pt" version="1.1" viewBox="0 0 700 700" xmlns="http://www.w3.org/2000/svg">
 <path d="m562.33 233.33h-25.664v-70c0-6.1875-2.4609-12.121-6.8359-16.496-4.375-4.3789-10.309-6.8359-16.5-6.8359h-163.33l-46.668-46.668h-186.66v350c0 6.1914 2.457 12.125 6.832 16.5s10.312 6.8359 16.5 6.8359h374.73l21.934-66.035 44.801-134.4h-0.003906c0.73047-1.5938 1.3555-3.2305 1.8672-4.9023 0.12891-1.5508 0.12891-3.1133 0-4.6641 0.03125-5.8047-2.1055-11.414-5.9883-15.727-3.8828-4.3164-9.2344-7.0273-15.012-7.6094zm-72.332 159.37-9.1016 27.301h-317.57v-280h120.63l33.133 32.898 13.535 13.766 159.37 0.003907v46.668l-225.87-0.003907-33.598 84.234-18.898 46.668 21.695 9.0977 21.699 8.6328 40.836-101.96h231.7z"/>
</svg>
