<?xml version="1.0" encoding="UTF-8"?>
<svg width="700pt" height="700pt" version="1.1" viewBox="0 0 700 700" xmlns="http://www.w3.org/2000/svg">
 <path d="m490 186.67-93.332-93.336-46.668-46.664h-163.33c-6.1914 0-12.125 2.457-16.5 6.832s-6.8359 10.312-6.8359 16.5v420c0 6.1875 2.4609 12.125 6.8359 16.5s10.309 6.832 16.5 6.832h163.33v-46.664h-140v-373.34h140v116.67c0 6.1875 2.457 12.125 6.8359 16.5 4.375 4.375 10.309 6.832 16.496 6.832h116.67v93.332h46.668v-93.332zm-93.332 0v-27.301l27.297 27.301zm233.33 256.66v46.668h-70v70h-46.668v-70h-70v-46.668h70v-70h46.668v70z"/>
</svg>
